<svg width="900" height="900" viewBox="0 0 900 900" fill="none" xmlns="http://www.w3.org/2000/svg">
    <g clip-path="url(#clip0)">
        <path d="M559.248 380.915C559.862 380.938 560.424 380.949 560.922 380.955C560.919 380.214 560.911 379.379 560.896 378.464C560.839 375.316 563.053 373.152 564.989 374.527C565.075 374.59 573.744 380.596 587.721 376.438C589.484 375.913 591.135 377.922 591.135 380.601C591.135 389.559 589.161 397.425 585.72 402.177C582.1 407.176 578.557 412.445 575.192 417.834C571.997 422.951 566.708 425.886 560.684 425.886C558.876 425.886 557.534 423.421 557.885 420.809C560.681 400.023 556.642 387.131 556.6 387.006C555.67 384.128 557.123 380.825 559.248 380.915V380.915Z" fill="#4880FA"/>
        <path d="M556.601 387.011C556.642 387.135 560.681 400.027 557.885 420.813C557.533 423.43 558.879 425.891 560.685 425.891C566.708 425.891 571.997 422.956 575.192 417.838C576.873 415.147 578.601 412.481 580.359 409.865L560.923 380.959C560.424 380.954 559.862 380.942 559.248 380.92C557.127 380.829 555.668 384.128 556.601 387.011Z" fill="#365FDE"/>
        <path d="M544.838 407.718C545.028 407.255 549.501 396.224 550.077 383.805C550.179 381.613 549.139 379.667 547.679 379.321C537.582 376.922 529.245 372.255 522.9 365.448C521.016 363.426 518.376 365.434 518.376 368.891C518.376 374.722 519.255 380.952 520.92 386.908C525.62 403.723 541.08 409.403 541.736 409.636C542.933 410.062 544.189 409.3 544.838 407.718V407.718Z" fill="#F2D131"/>
        <path d="M558.401 362.759C561.317 356.977 570.935 357.129 574.075 357.639C575.77 357.911 577.242 355.937 577.242 353.419C577.242 352.914 577.22 340.908 575.268 328.138C573.202 314.617 568.893 299.906 559.722 297.178C550.731 294.504 545.372 298.368 542.46 302.08C539.237 306.188 538.249 310.965 538.147 311.496C537.888 312.847 538.094 314.301 538.699 315.38C553.507 341.806 550.175 349.551 553.467 361.789C554.293 364.859 557.067 365.405 558.401 362.759V362.759ZM543.628 313.875H543.626H543.628Z" fill="#FAF17D"/>
        <path d="M514.493 365.95C522.953 378.529 534.956 384.897 546.77 387.703C552.148 388.976 558.303 389.671 563.882 389.368C565.339 389.242 566.491 387.52 566.575 385.363C566.578 385.252 566.675 382.586 566.595 378.236C566.175 354.929 561.917 328.41 550.828 311.913C532.735 285.006 503.39 274.347 496.524 285.189C489.262 296.429 496.494 339.175 514.493 365.95V365.95Z" fill="#93C5EC"/>
        <path d="M514.504 365.956C522.963 378.536 534.966 384.903 546.781 387.71C552.159 388.982 558.313 389.677 563.893 389.374C564.618 389.311 565.272 388.853 565.752 388.134L496.534 285.195C489.272 296.435 496.505 339.181 514.504 365.956V365.956Z" fill="#6AA6FB"/>
        <path d="M496.532 285.186C499.751 280.103 506.79 280.652 511.43 281.694C518.702 283.33 526.596 287.601 533.09 292.709C533.09 292.709 532.464 306.957 521.856 322.731C511.249 338.507 501.562 339.571 501.562 339.571C496.848 326.263 494.405 313.116 493.862 303.408C493.531 297.47 493.731 289.522 496.532 285.186V285.186Z" fill="#6AA6FB"/>
        <path d="M493.861 303.417C494.404 313.128 496.847 326.272 501.561 339.58C501.561 339.58 511.223 338.519 521.814 322.796L496.531 285.195C493.73 289.531 493.53 297.479 493.861 303.417V303.417Z" fill="#4880FA"/>
        <path d="M513.485 307.846C515.962 307.846 517.324 303.39 515.504 300.597C514.216 298.737 512.282 299.07 511.277 300.909C509.757 303.679 511.081 307.846 513.485 307.846V307.846Z" fill="#25429A"/>
        <path d="M773.649 629.274L733.562 608.941C733.562 608.941 747.355 638.383 764.178 651.206C765.584 652.277 767.138 651.343 767.335 649.268C767.822 644.134 769.283 635.151 773.649 629.274Z" fill="#0096DC"/>
        <path d="M784.312 493.178L765.89 504.382L817.403 588.142C815.844 564.608 808.786 527.629 787.086 494.207C786.338 493.055 785.2 492.638 784.312 493.178Z" fill="#0096DC"/>
        <path d="M832.168 623.81L849.73 597.213C851.312 594.819 849.706 590.866 847.552 591.864C838.932 595.857 825.344 599.292 810.522 592.138L798.424 621.665C808.91 638.407 812.61 657.913 813.88 671.117C814.201 674.461 817.292 674.96 818.071 671.787L826.65 636.81C827.98 632.03 829.838 627.652 832.168 623.81Z" fill="#87DCFF"/>
        <path d="M771.62 502.471C742.029 474.692 719.586 511.324 714.833 520.079C714.225 521.2 714.145 522.756 714.652 523.983C716.105 527.5 719.971 534.823 728.791 541.307C724.204 545.565 717.825 545.325 712.911 542.758C711.664 542.106 710.306 543.069 709.922 544.95C707.805 555.291 703.947 586.125 726.949 607.717C746.491 626.063 803.786 646.9 816.122 617.838C828.458 588.774 791.162 520.816 771.62 502.471Z" fill="#00C3FF"/>
        <path d="M743.292 582.148C729.713 569.401 724.714 555.366 723.137 544.262C719.69 545.037 716.011 544.351 712.913 542.732C711.666 542.081 710.309 543.044 709.924 544.925C707.808 555.265 703.95 586.1 726.951 607.692C746.494 626.038 803.789 646.875 816.125 617.813C816.899 615.989 817.476 614.012 817.876 611.904C798.551 617.083 759.18 597.062 743.292 582.148Z" fill="#00AAF0"/>
        <path d="M766.949 498.614C739.706 478.598 719.359 511.774 714.845 520.072C714.233 521.197 714.148 522.756 714.657 523.989C715.992 527.218 719.36 533.654 726.727 539.704C727.602 540.422 727.54 542.394 726.61 542.937C722.318 545.444 717.088 544.942 712.915 542.762C711.655 542.102 710.301 543.114 709.914 545.016C707.947 554.696 704.533 581.997 722.567 603.107C738.116 602.594 753.657 590.144 763.049 568.016C772.435 545.902 773.313 519.702 766.949 498.614Z" fill="#87DCFF"/>
        <path d="M750.631 588.21C747.852 586.155 745.369 584.119 743.294 582.171C729.716 569.425 724.716 555.39 723.139 544.286C719.693 545.061 716.014 544.375 712.916 542.756C711.655 542.097 710.302 543.108 709.915 545.011C707.947 554.69 704.534 581.991 722.567 603.101C732.453 602.776 742.33 597.606 750.631 588.21Z" fill="#00C3FF"/>
        <path d="M797.042 595.845C797.273 591.338 786.496 580.803 782.516 577.073C781.6 576.216 780.489 575.977 779.448 576.413L771.94 579.563C769.955 580.396 768.783 583.412 769.27 586.393C770.885 596.262 774.11 608.187 777.924 609.582C782.683 611.324 796.838 599.817 797.042 595.845Z" fill="#87DCFF"/>
        <path d="M733.35 527.851C731.179 525.813 730.53 521.543 731.9 518.313L733.141 515.39C734.512 512.161 737.383 511.195 739.555 513.234C741.726 515.272 742.375 519.542 741.005 522.772L739.764 525.695C738.393 528.924 735.522 529.89 733.35 527.851Z" fill="#4B3F4E"/>
        <path d="M735.828 522.004C736.913 523.024 738.349 522.541 739.034 520.926C739.72 519.312 739.395 517.177 738.309 516.158C737.224 515.139 735.788 515.621 735.103 517.236C734.418 518.85 734.742 520.985 735.828 522.004Z" fill="white"/>
        <path d="M793.849 600.735C788.082 591.532 781.134 584.941 780.753 584.584C779.667 583.564 778.233 584.047 777.547 585.66C776.862 587.275 777.185 589.409 778.27 590.43C778.354 590.508 784.517 596.361 789.763 604.384C791.271 603.202 792.675 601.949 793.849 600.735Z" fill="#00AAF0"/>
        <path d="M241.674 405.455L286.206 525.659C287.646 529.547 286.376 534.915 283.369 537.643C262.05 556.985 238.923 566.486 219.852 564.101C217.899 585.41 210.34 618.824 185.315 656.332C181.487 662.08 175.35 659.791 175.237 652.553C174.506 601.752 160.839 561.874 160.101 559.764C159.308 557.742 143.983 519.348 116.166 493.104C112.217 489.361 113.974 479.902 119.078 477.538C152.313 462.192 174.598 468.53 187.385 476.464C195.539 449.38 212.299 422.694 233.619 403.352C236.625 400.625 240.234 401.566 241.674 405.455V405.455Z" fill="#FAF17D"/>
        <path d="M264.834 471.938L286.5 530.102C287.902 533.865 286.665 539.06 283.739 541.699C262.989 560.415 240.481 569.607 221.922 567.297C220.019 587.918 212.661 620.252 188.305 656.548C184.578 662.109 178.606 659.894 178.496 652.889C177.788 603.728 164.489 565.136 163.771 563.094L264.834 471.937L264.834 471.938Z" fill="#F2D131"/>
        <path d="M328.142 411.924C328.374 413.352 333.644 447.482 324.398 494.989C311.02 563.735 275.865 617.771 232.238 657.348C229.701 659.649 226.665 659.393 224.899 656.731C223.133 654.068 223.105 649.692 224.829 646.169C248.231 598.354 256.104 573.211 244.265 541.254L213.528 458.286C201.689 426.33 183.833 424.527 145.688 432.546C142.877 433.136 140.464 430.923 139.865 427.202C139.266 423.482 140.633 419.231 143.17 416.929C186.802 377.348 234.237 356.467 279.005 372.46C309.945 383.512 326.253 407.629 326.93 408.653C327.517 409.538 327.933 410.627 328.142 411.924V411.924Z" fill="#93C5EC"/>
        <path d="M328.929 418.214C329.126 418.743 329.275 419.322 329.373 419.929C329.598 421.311 334.722 454.353 325.731 500.345C312.722 566.899 278.538 619.211 236.117 657.524C233.65 659.752 230.698 659.504 228.981 656.927C227.264 654.349 227.237 650.112 228.913 646.702C251.669 600.412 259.325 576.071 247.814 545.133L232.871 504.971L328.929 418.214Z" fill="#6AA6FB"/>
        <path d="M290.808 463.625C292.238 467.486 290.976 472.817 287.99 475.525C269.073 492.682 246.346 486.68 237.313 462.306C235.882 458.446 237.144 453.114 240.13 450.406C243.117 447.698 246.701 448.633 248.132 452.493C254.322 469.196 269.876 473.265 282.806 461.538C285.792 458.83 289.377 459.764 290.808 463.625Z" fill="#F9F9F9"/>
        <path d="M290.875 465.434C292.268 469.163 291.038 474.312 288.129 476.928C275.876 487.945 261.965 489.082 251.438 481.641L264.843 469.587C270.68 470.692 277.163 468.738 283.082 463.416C285.991 460.801 289.482 461.704 290.875 465.434V465.434Z" fill="#E7F1F9"/>
        <path d="M267.781 439.643C263.024 438.389 262.339 429.502 266.661 424.749C271.124 419.883 276.806 424.064 275.601 431.866C274.699 436.967 271.186 440.455 267.781 439.643Z" fill="#25429A"/>
        <g clip-path="url(#clip1)">
            <circle cx="426.241" cy="938.073" r="324.147" fill="#11DAE7"/>
            <mask id="mask0" mask-type="alpha" maskUnits="userSpaceOnUse" x="102" y="613" width="649" height="650">
                <circle cx="426.241" cy="938.073" r="324.147" fill="#11DAE7"/>
            </mask>
            <g mask="url(#mask0)">
                <path d="M384.982 712.56C368.16 665.926 686.428 556.078 780.971 653.678C875.513 751.279 879.608 862.555 842.912 887.63C806.216 912.706 709.921 889.547 634.22 847.876C558.519 806.206 580.996 774.912 531.02 746.198C480.101 716.943 395.545 741.84 384.982 712.56Z" fill="#02C9EA"/>
                <path fill-rule="evenodd" clip-rule="evenodd" d="M28.2708 957.889C4.87635 929.454 -21.1556 898.822 -20.9523 862.018C-20.7421 823.948 7.17602 793.61 29.3486 762.719C54.49 727.692 73.99 680.414 116.081 671.103C158.199 661.786 195.608 697.026 233.624 717.532C268.404 736.292 306.635 751.542 327.489 785.135C348.71 819.319 354.821 861.583 347.598 901.128C340.706 938.856 315.424 969.07 288.851 996.668C263.134 1023.38 235.161 1053.18 198.205 1056.29C162.452 1059.3 133.808 1030.34 102.721 1012.34C75.4513 996.55 48.3005 982.235 28.2708 957.889Z" fill="#02C9EA"/>
            </g>
        </g>
    </g>
    <defs>
        <clipPath id="clip0">
            <rect width="900" height="900" fill="white"/>
        </clipPath>
        <clipPath id="clip1">
            <rect width="893.906" height="538.635" fill="white" transform="translate(102.094 613.926)"/>
        </clipPath>
    </defs>
</svg>
