<svg width="86" height="28" viewBox="0 0 86 28" fill="none" xmlns="http://www.w3.org/2000/svg">
    <path d="M35.3 20.2V10H31.4V8H41.3V10H37.4V20.2H35.3Z" fill="black"/>
    <path d="M40.1 20.2L45.5 7.90002H47.5L52.9 20.2H50.6L49.4 17.2H43.6L42.3 20.2H40.1ZM44.3 15.4H48.5L46.4 10.5L44.3 15.4Z" fill="black"/>
    <path d="M59.1 20.4C57.2 20.4 55.7 19.8 54.5 18.6C53.3 17.4 52.7 15.9 52.7 14.1C52.7 12.4 53.3 10.9 54.5 9.59998C55.7 8.39998 57.2 7.70001 59 7.70001C60 7.70001 60.9 7.79998 61.6 8.09998C62.3 8.39998 63 8.79999 63.7 9.29999L62.3 10.9C61.8 10.5 61.3 10.1 60.8 9.90002C60.3 9.70002 59.7 9.59998 58.9 9.59998C57.8 9.59998 56.9 10 56.1 10.9C55.3 11.7 54.9 12.8 54.9 13.9C54.9 15.2 55.3 16.2 56.1 17C56.9 17.8 57.9 18.2 59.1 18.2C60.2 18.2 61.2 17.9 62.1 17.3V15H59V13.1H64.2V18.2C62.7 19.8 61 20.4 59.1 20.4Z" fill="black"/>
    <path d="M66.1 20.2V8H75.2V9.90002H68.3V13.1H74.4V15H68.3V18.3H75.3V20.2H66.1Z" fill="black"/>
    <path d="M81.2 20.4C79.2 20.4 77.5 19.7 76.1 18.4L77.4 16.9C78.6 18 79.9 18.5 81.3 18.5C82 18.5 82.5 18.4 82.9 18.1C83.3 17.8 83.5 17.4 83.5 17C83.5 16.6 83.3 16.2 82.9 15.9C82.5 15.6 81.8 15.4 80.7 15.1C79.3 14.8 78.3 14.3 77.6 13.8C76.9 13.3 76.6 12.5 76.6 11.4C76.6 10.4 77 9.49999 77.8 8.79999C78.6 8.09999 79.6 7.79999 80.8 7.79999C82.5 7.79999 83.9 8.29999 85.2 9.29999L84 10.9C82.9 10.1 81.8 9.59998 80.7 9.59998C80.1 9.59998 79.6 9.7 79.2 10C78.8 10.3 78.7 10.6 78.7 11C78.7 11.5 78.9 11.8 79.3 12.1C79.7 12.4 80.5 12.6 81.6 12.9C83 13.2 84 13.7 84.6 14.2C85.2 14.7 85.5 15.5 85.5 16.5C85.5 17.6 85.1 18.5 84.3 19.2C83.6 20.1 82.5 20.4 81.2 20.4Z" fill="black"/>
    <path d="M1.5 9.90002C1.1 10 0.800024 9.99998 0.400024 10.1V19.2C0.400024 19.5 0.499951 19.8 0.699951 20C0.899951 19.6 1.2 19.2 1.5 18.8V9.90002Z" fill="#EA5816"/>
    <path d="M2.09998 19.8C1.89998 20.1 1.7 20.4 1.5 20.8L7.90002 27.2C8.10002 27.4 8.39995 27.5 8.69995 27.5C8.59995 27 8.50002 26.6 8.40002 26.1L2.09998 19.8Z" fill="#EA5816"/>
    <path d="M18.1 1.79999C18 1.39999 18 1.10001 17.9 0.700012H8.80005C8.50005 0.700012 8.2 0.8 8 1C8.4 1.2 8.79995 1.49999 9.19995 1.79999H18.1Z" fill="#EA5816"/>
    <path d="M7 3.5L7.30005 3.20001L8.09998 2.40002C7.79998 2.20002 7.49998 1.99999 7.09998 1.79999L0.699951 8.20001C0.499951 8.40001 0.400024 8.7 0.400024 9C0.900024 8.9 1.30005 8.80001 1.80005 8.70001L7 3.5Z" fill="#EA5816"/>
    <path d="M26.9 8.29999C26.7 8.69999 26.4 9.1 26.1 9.5V18.5C26.5 18.4 26.8 18.4 27.2 18.3V9C27.2 8.7 27.1 8.49999 26.9 8.29999Z" fill="#EA5816"/>
    <path d="M25.5 8.5C25.7 8.2 25.9 7.9 26.1 7.5L20.2 1.59998L19.7 1.09998C19.5 0.899976 19.2 0.799988 18.9 0.799988C19 1.29999 19.1 1.70001 19.2 2.20001L25.5 8.5Z" fill="#EA5816"/>
    <path d="M9.5 26.4C9.6 26.8 9.59995 27.1 9.69995 27.5H18.8C19.1 27.5 19.4 27.4 19.6 27.2C19.2 27 18.8 26.7 18.4 26.4H9.5Z" fill="#EA5816"/>
    <path d="M19.5 25.8C19.8 26 20.1 26.2 20.5 26.4L26.9 20C27.1 19.8 27.2 19.5 27.2 19.2C26.7 19.3 26.3 19.4 25.8 19.5L19.5 25.8Z" fill="#EA5816"/>
    <path d="M19 6.99999C18.8 7.99999 19.1001 9 19.8001 9.7L20.9001 10.8L22 11.9C22.3 11.7 22.6001 11.5 22.9001 11.3L19.4001 7.49999L19 6.99999C19 6.89999 19 6.89999 19 6.99999Z" fill="#EA5816"/>
    <path d="M6.80005 17.5L5.69995 16.4C5.39995 16.6 5.10005 16.8 4.80005 17L5.69995 17.9L6.30005 18.5L8.69995 20.9C8.89995 20.1 8.69998 19.3 8.09998 18.8L6.80005 17.5Z" fill="#EA5816"/>
    <path d="M21.2 16.7V18.2C21.6 18.3 21.9 18.3 22.3 18.4V17.1V16.4V12.7C21.6 13.1 21.2 13.8 21.2 14.6V16.7Z" fill="#EA5816"/>
    <path d="M11.5 6C11.3 5.7 11.1 5.39998 10.9 5.09998L9.80005 6.20001L6.90002 9.09998C7.70002 9.29998 8.5 9.1 9 8.5L9.80005 7.70001L11.5 6Z" fill="#EA5816"/>
    <path d="M17.9 6.70001C18 6.30001 18 5.99998 18.1 5.59998H16.7H12.5C12.9 6.29998 13.6 6.70001 14.4 6.70001H16.3H17.9Z" fill="#EA5816"/>
    <path d="M17.2 21.2L16.1 22.3C16.3 22.6 16.5 22.9 16.7 23.1L17.7 22.3L18.2 21.8L20.7 19.3C19.9 19.1 19.1 19.3 18.6 19.9L17.2 21.2Z" fill="#EA5816"/>
    <path d="M13.1 21.5H11.2H9.69995C9.59995 21.9 9.5 22.2 9.5 22.6H10.8H11.5H15.1C14.7 21.9 13.9 21.5 13.1 21.5Z" fill="#EA5816"/>
    <path d="M6.40002 11.1V10C6.30002 10 6.29995 10 6.19995 10C6.09995 10 6.1 10 6 9.90002C5.8 9.90002 5.50005 9.79999 5.30005 9.79999V10.6L5.59998 10.3L6 10L5.59998 10.3L5.30005 10.6V11.1V11.4V11.5V15.4C6.00005 15 6.40002 14.3 6.40002 13.5V11.6V11.1Z" fill="#EA5816"/>
    <path d="M17.8 24.4C18 24.6 18.2 24.8 18.4 24.9L18.7 24.6L19.2 24.1L23.8 19.5C23.3 19.5 22.8 19.5 22.3 19.4L17.6 24.1C17.7 24.3 17.7 24.4 17.8 24.4Z" fill="#EA5816"/>
    <path d="M24.1 10.1C24.3 9.89998 24.5 9.7 24.6 9.5L24.3 9.20001L24 8.90002L19.2 4.09998C19.2 4.59998 19.2 5.09998 19.1 5.59998L23.8 10.3C24 10.2 24 10.2 24.1 10.1Z" fill="#EA5816"/>
    <path d="M10.6 3.20001C10.9 3.60001 11.3 3.89999 11.6 4.29999H18.3C18.3 4.19999 18.3 4.1 18.3 4C18.3 3.7 18.3 3.50001 18.3 3.20001H18.1H10.6Z" fill="#EA5816"/>
    <path d="M9.80005 3.79999C9.60005 3.59999 9.39995 3.39999 9.19995 3.29999L8.90002 3.59998L8.09998 4.40002L3.80005 8.70001C4.30005 8.70001 4.80005 8.69999 5.30005 8.79999L10 4.09998C9.9 3.89998 9.80005 3.89999 9.80005 3.79999Z" fill="#EA5816"/>
    <path d="M2.90002 9.70001V10.1V10.5V17.3C3.30002 17 3.6 16.6 4 16.3V9.59998C3.9 9.59998 3.79995 9.59998 3.69995 9.59998C3.39995 9.69998 3.10002 9.70001 2.90002 9.70001Z" fill="#EA5816"/>
    <path d="M10.4 25.1H16.9C16.6 24.7 16.2 24.4 15.9 24H9.19995C9.19995 24.1 9.19995 24.2 9.19995 24.3C9.19995 24.6 9.19995 24.8 9.19995 25.1H9.59998H10.4Z" fill="#EA5816"/>
    <path d="M3.5 18.1C3.3 18.3 3.1 18.5 3 18.7L3.30005 19L3.90002 19.6L8.40002 24.1C8.40002 23.6 8.4 23.1 8.5 22.6L3.80005 17.9C3.60005 18 3.5 18.1 3.5 18.1Z" fill="#EA5816"/>
    <path d="M24.7 18.6V18.2V17.6V11C24.3 11.3 24 11.7 23.6 12V18.7C23.7 18.7 23.8 18.7 23.9 18.7C24.2 18.6 24.5 18.6 24.7 18.6Z" fill="#EA5816"/>
</svg>
